<svg  width="157" height="22" viewBox="0 0 157 22" fill="none" xmlns="http://www.w3.org/2000/svg">
<g clipPath="url(#clip0_33_58)">
<path d="M14.66 17.08L14.54 10.24V0.330017H16.61V20.98H15.37L2 4.37002L2.06 10.47V20.98H0V0.330017H1.3L14.66 17.08Z" fill="#ffffff"/>
<path d="M32.68 19.38C38.29 19.47 41.06 15.14 41.06 10.71C41.06 6.28004 38.32 1.86004 32.68 2.00004C27.14 1.91004 24.19 6.00004 24.27 10.76C24.36 15.24 27.02 19.52 32.68 19.43M43.12 10.76C43.12 16.16 39.64 21.47 32.68 21.38C25.68 21.47 22.21 16.13 22.21 10.73C22.21 4.90004 26 -0.0899608 32.68 3.9162e-05C39.68 -0.0899608 43.12 5.25004 43.12 10.71" fill="#ffffff"/>
<path d="M57.16 21.04H54.86L46.07 0.330017H48.34L56.01 18.76L63.56 0.330017H65.86L57.16 21.04Z" fill="#ffffff"/>
<path d="M67.48 20.98H65.3L74.56 0.330017H76.63L85.89 20.98H83.71L75.6 2.57002L67.48 20.98Z" fill="#3574F5"/>
<path d="M106.72 18.17C105.743 19.1728 104.573 19.9671 103.281 20.5051C101.988 21.043 100.6 21.3135 99.2 21.3C92.06 21.3 88.46 16.52 88.46 10.77C88.46 5.02002 92 1.6171e-05 99.2 1.6171e-05C100.57 -0.0411602 101.933 0.214579 103.194 0.74968C104.456 1.28478 105.587 2.08657 106.51 3.10002L105.24 4.40002C103.647 2.81202 101.489 1.92023 99.24 1.92002C93.48 1.92002 90.56 6.17002 90.56 10.74C90.56 15.58 93.48 19.38 99.24 19.38C101.555 19.3797 103.778 18.4713 105.43 16.85L106.72 18.17Z" fill="#ffffff"/>
<path d="M120.61 19.38C126.22 19.47 128.99 15.14 128.99 10.71C128.99 6.28003 126.25 1.86003 120.61 2.00003C115.07 1.91003 112.12 6.00003 112.21 10.76C112.29 15.24 114.95 19.52 120.61 19.43M131.06 10.76C131.06 16.16 127.58 21.47 120.61 21.38C113.61 21.47 110.14 16.13 110.14 10.73C110.14 4.95003 113.92 -0.039973 120.61 0.050027C127.61 -0.039973 131.06 5.30003 131.06 10.76Z" fill="#ffffff"/>
<path d="M154.27 3.36002L146.57 14.69H145.98L138.25 3.22002V20.98H136.19V0.330017H138.73L146.28 11.71L153.74 0.330017H156.34V20.98H154.27V3.36002Z" fill="#ffffff"/>
</g>
<defs>
<clipPath id="clip0_33_58">
<rect width="156.34" height="21.33" fill="white"/>
</clipPath>
</defs>
</svg>
